<?xml version="1.0"?>
<svg viewBox="0 0 24 24" height="32px" width="32px" xmlns="http://www.w3.org/2000/svg">
    <title />
    <path d="M19,8H9A1,1,0,0,1,9,6H19a1,1,0,0,1,0,2Z" fill="#f0ffff" />
    <path d="M19,13H9a1,1,0,0,1,0-2H19a1,1,0,0,1,0,2Z" fill="#f0ffff" />
    <path d="M19,18H9a1,1,0,0,1,0-2H19a1,1,0,0,1,0,2Z" fill="#f0ffff" />
    <circle cx="5" cy="7" fill="#f0ffff" r="1" />
    <circle cx="5" cy="12" fill="#f0ffff" r="1" />
    <circle cx="5" cy="17" fill="#f0ffff" r="1" />
</svg>