<?xml version="1.0" encoding="UTF-8" standalone="no"?>
<!-- Created with Inkscape (http://www.inkscape.org/) -->

<svg
   width="2.3752265in"
   height="3.5754721in"
   viewBox="0 0 228.02174 343.24532"
   version="1.1"
   id="svg1"
   xml:space="preserve"
   xmlns:inkscape="http://www.inkscape.org/namespaces/inkscape"
   xmlns:sodipodi="http://sodipodi.sourceforge.net/DTD/sodipodi-0.dtd"
   xmlns="http://www.w3.org/2000/svg"
   xmlns:svg="http://www.w3.org/2000/svg"><sodipodi:namedview
     id="namedview1"
     pagecolor="#505050"
     bordercolor="#eeeeee"
     borderopacity="1"
     inkscape:showpageshadow="0"
     inkscape:pageopacity="0"
     inkscape:pagecheckerboard="0"
     inkscape:deskcolor="#505050"
     inkscape:document-units="in"><inkscape:page
       x="-1.1210966e-05"
       y="3.487675e-06"
       width="228.02173"
       height="343.24533"
       id="page3"
       margin="0"
       bleed="0" /></sodipodi:namedview><defs
     id="defs1"><clipPath
       clipPathUnits="userSpaceOnUse"
       id="clipPath176"><path
         d="m 5003.46,579.25 227.39,360.148 c 6.42,10.153 18.56,15.114 30.24,12.344 l 414.44,-98.293 c 22.23,-5.277 41.13,16.781 32.5,37.949 l -351.8,862.262 -754.34,-307.77 351.8,-862.261 c 8.63,-21.16 37.57,-23.707 49.77,-4.379 z"
         id="path174" /></clipPath><linearGradient
       x1="0"
       y1="0"
       x2="1"
       y2="0"
       gradientUnits="userSpaceOnUse"
       gradientTransform="matrix(1023.43,420.89,420.89,-1023.43,4645.03,943.76)"
       spreadMethod="pad"
       id="linearGradient200"><stop
         style="stop-opacity:1;stop-color:#ee252c"
         offset="0"
         id="stop178" /><stop
         style="stop-opacity:1;stop-color:#ee252c"
         offset="0.00115006"
         id="stop180" /><stop
         style="stop-opacity:1;stop-color:#e91c24"
         offset="0.0444361"
         id="stop182" /><stop
         style="stop-opacity:1;stop-color:#91191e"
         offset="0.0824748"
         id="stop184" /><stop
         style="stop-opacity:1;stop-color:#ee2429"
         offset="0.294836"
         id="stop186" /><stop
         style="stop-opacity:1;stop-color:#e41d25"
         offset="0.444858"
         id="stop188" /><stop
         style="stop-opacity:1;stop-color:#ee2429"
         offset="0.558265"
         id="stop190" /><stop
         style="stop-opacity:1;stop-color:#d21e25"
         offset="0.694401"
         id="stop192" /><stop
         style="stop-opacity:1;stop-color:#94191e"
         offset="0.848354"
         id="stop194" /><stop
         style="stop-opacity:1;stop-color:#ec1c24"
         offset="0.962068"
         id="stop196" /><stop
         style="stop-opacity:1;stop-color:#ee242d"
         offset="1"
         id="stop198" /></linearGradient><clipPath
       clipPathUnits="userSpaceOnUse"
       id="clipPath210"><path
         d="m 5108.25,1445.91 -40.97,-100.42 -151.48,-371.271 -6.26,-15.297 -54.46,-133.582 -98.63,-241.699 c -8.64,-21.153 -37.55,-23.7 -49.78,-4.399 l -227.39,360.137 c -6.37,10.152 -18.55,15.133 -30.25,12.351 l -414.44,-98.281 c -22.2,-5.277 -41.08,16.801 -32.45,37.961 l 351.8,862.26 z"
         id="path208" /></clipPath><linearGradient
       x1="0"
       y1="0"
       x2="1"
       y2="0"
       gradientUnits="userSpaceOnUse"
       gradientTransform="matrix(1134.19,-437.135,-437.135,-1134.19,4017.64,1361.05)"
       spreadMethod="pad"
       id="linearGradient234"><stop
         style="stop-opacity:1;stop-color:#ee252c"
         offset="0"
         id="stop212" /><stop
         style="stop-opacity:1;stop-color:#ee252c"
         offset="0.00115006"
         id="stop214" /><stop
         style="stop-opacity:1;stop-color:#e91c24"
         offset="0.0444361"
         id="stop216" /><stop
         style="stop-opacity:1;stop-color:#91191e"
         offset="0.0824748"
         id="stop218" /><stop
         style="stop-opacity:1;stop-color:#ee2429"
         offset="0.294836"
         id="stop220" /><stop
         style="stop-opacity:1;stop-color:#e41d25"
         offset="0.444858"
         id="stop222" /><stop
         style="stop-opacity:1;stop-color:#ee2429"
         offset="0.558265"
         id="stop224" /><stop
         style="stop-opacity:1;stop-color:#d21e25"
         offset="0.694401"
         id="stop226" /><stop
         style="stop-opacity:1;stop-color:#94191e"
         offset="0.848354"
         id="stop228" /><stop
         style="stop-opacity:1;stop-color:#ec1c24"
         offset="0.962068"
         id="stop230" /><stop
         style="stop-opacity:1;stop-color:#ee242d"
         offset="1"
         id="stop232" /></linearGradient><clipPath
       clipPathUnits="userSpaceOnUse"
       id="clipPath244"><path
         d="m 5689.51,2179.9 c 0,-460.85 -373.59,-834.44 -834.43,-834.44 -460.85,0 -834.45,373.59 -834.45,834.44 0,460.85 373.6,834.44 834.45,834.44 460.84,0 834.43,-373.59 834.43,-834.44 z"
         id="path242" /></clipPath><linearGradient
       x1="0"
       y1="0"
       x2="1"
       y2="0"
       gradientUnits="userSpaceOnUse"
       gradientTransform="matrix(1441.36,-1246.42,-1246.42,-1441.36,4213.54,2734.66)"
       spreadMethod="pad"
       id="linearGradient264"><stop
         style="stop-opacity:1;stop-color:#f47529"
         offset="0"
         id="stop246" /><stop
         style="stop-opacity:1;stop-color:#f47529"
         offset="0.00115006"
         id="stop248" /><stop
         style="stop-opacity:1;stop-color:#f68b46"
         offset="0.13397"
         id="stop250" /><stop
         style="stop-opacity:1;stop-color:#f68337"
         offset="0.294836"
         id="stop252" /><stop
         style="stop-opacity:1;stop-color:#f89a6a"
         offset="0.446028"
         id="stop254" /><stop
         style="stop-opacity:1;stop-color:#f57e37"
         offset="0.558265"
         id="stop256" /><stop
         style="stop-opacity:1;stop-color:#f58037"
         offset="0.695557"
         id="stop258" /><stop
         style="stop-opacity:1;stop-color:#f89e69"
         offset="0.847204"
         id="stop260" /><stop
         style="stop-opacity:1;stop-color:#e06726"
         offset="1"
         id="stop262" /></linearGradient><clipPath
       clipPathUnits="userSpaceOnUse"
       id="clipPath274"><path
         d="m 4855.08,1419.66 c -419.23,0 -760.25,341.02 -760.25,760.24 0,419.22 341.02,760.24 760.25,760.24 419.22,0 760.23,-341.02 760.23,-760.24 0,-419.22 -341.01,-760.24 -760.23,-760.24 z"
         id="path272" /></clipPath><linearGradient
       x1="0"
       y1="0"
       x2="1"
       y2="0"
       gradientUnits="userSpaceOnUse"
       gradientTransform="matrix(1520.48,0,0,-1520.48,4094.84,2179.9)"
       spreadMethod="pad"
       id="linearGradient294"><stop
         style="stop-opacity:1;stop-color:#a44722"
         offset="0"
         id="stop276" /><stop
         style="stop-opacity:1;stop-color:#a44722"
         offset="0.00346193"
         id="stop278" /><stop
         style="stop-opacity:1;stop-color:#9c5025"
         offset="0.135126"
         id="stop280" /><stop
         style="stop-opacity:1;stop-color:#db621c"
         offset="0.294836"
         id="stop282" /><stop
         style="stop-opacity:1;stop-color:#d87343"
         offset="0.446028"
         id="stop284" /><stop
         style="stop-opacity:1;stop-color:#cf6122"
         offset="0.558265"
         id="stop286" /><stop
         style="stop-opacity:1;stop-color:#c15125"
         offset="0.695557"
         id="stop288" /><stop
         style="stop-opacity:1;stop-color:#f57b38"
         offset="0.847204"
         id="stop290" /><stop
         style="stop-opacity:1;stop-color:#ce6027"
         offset="1"
         id="stop292" /></linearGradient><clipPath
       clipPathUnits="userSpaceOnUse"
       id="clipPath304"><path
         d="m 5568.79,2179.9 c 0,-394.18 -319.54,-713.72 -713.71,-713.72 -394.18,0 -713.72,319.54 -713.72,713.72 0,394.17 319.54,713.71 713.72,713.71 394.17,0 713.71,-319.54 713.71,-713.71 z"
         id="path302" /></clipPath><linearGradient
       x1="0"
       y1="0"
       x2="1"
       y2="0"
       gradientUnits="userSpaceOnUse"
       gradientTransform="matrix(1547.69,-1335.03,-1335.03,-1547.69,4322.35,2639.42)"
       spreadMethod="pad"
       id="linearGradient324"><stop
         style="stop-opacity:1;stop-color:#f47529"
         offset="0"
         id="stop306" /><stop
         style="stop-opacity:1;stop-color:#f47529"
         offset="0.00115006"
         id="stop308" /><stop
         style="stop-opacity:1;stop-color:#f68b46"
         offset="0.13397"
         id="stop310" /><stop
         style="stop-opacity:1;stop-color:#f68337"
         offset="0.294836"
         id="stop312" /><stop
         style="stop-opacity:1;stop-color:#f89a6a"
         offset="0.446028"
         id="stop314" /><stop
         style="stop-opacity:1;stop-color:#f57e37"
         offset="0.558265"
         id="stop316" /><stop
         style="stop-opacity:1;stop-color:#f58037"
         offset="0.695557"
         id="stop318" /><stop
         style="stop-opacity:1;stop-color:#f89e69"
         offset="0.847204"
         id="stop320" /><stop
         style="stop-opacity:1;stop-color:#e06726"
         offset="1"
         id="stop322" /></linearGradient></defs><g
     id="g3"
     inkscape:label="bronze"
     transform="matrix(0.13333333,0,0,-0.13333333,-533.33345,401.91199)"><path
       d="M 5710.15,476.531 C 5710.15,456.359 5327.31,440 4855.08,440 4382.83,440 4000,456.359 4000,476.531 c 0,20.168 382.83,36.528 855.08,36.528 472.23,0 855.07,-16.36 855.07,-36.528"
       style="fill:#d0d9e5;fill-opacity:1;fill-rule:nonzero;stroke:none"
       id="path168" /><g
       id="g170"><g
         id="g172"
         clip-path="url(#clipPath176)"><path
           d="m 5003.46,579.25 227.39,360.148 c 6.42,10.153 18.56,15.114 30.24,12.344 l 414.44,-98.293 c 22.23,-5.277 41.13,16.781 32.5,37.949 l -351.8,862.262 -754.34,-307.77 351.8,-862.261 c 8.63,-21.16 37.57,-23.707 49.77,-4.379"
           style="fill:url(#linearGradient200);fill-opacity:1;fill-rule:nonzero;stroke:none"
           id="path202" /></g></g><g
       id="g204"><g
         id="g206"
         clip-path="url(#clipPath210)"><path
           d="m 5108.25,1445.91 -40.97,-100.42 -151.48,-371.271 -6.26,-15.297 -54.46,-133.582 -98.63,-241.699 c -8.64,-21.153 -37.55,-23.7 -49.78,-4.399 l -227.39,360.137 c -6.37,10.152 -18.55,15.133 -30.25,12.351 l -414.44,-98.281 c -22.2,-5.277 -41.08,16.801 -32.45,37.961 l 351.8,862.26 754.31,-307.76"
           style="fill:url(#linearGradient234);fill-opacity:1;fill-rule:nonzero;stroke:none"
           id="path236" /></g></g><g
       id="g238"><g
         id="g240"
         clip-path="url(#clipPath244)"><path
           d="m 5689.51,2179.9 c 0,-460.85 -373.59,-834.44 -834.43,-834.44 -460.85,0 -834.45,373.59 -834.45,834.44 0,460.85 373.6,834.44 834.45,834.44 460.84,0 834.43,-373.59 834.43,-834.44"
           style="fill:url(#linearGradient264);fill-opacity:1;fill-rule:nonzero;stroke:none"
           id="path266" /></g></g><g
       id="g268"><g
         id="g270"
         clip-path="url(#clipPath274)"><path
           d="m 4855.08,1419.66 c -419.23,0 -760.25,341.02 -760.25,760.24 0,419.22 341.02,760.24 760.25,760.24 419.22,0 760.23,-341.02 760.23,-760.24 0,-419.22 -341.01,-760.24 -760.23,-760.24"
           style="fill:url(#linearGradient294);fill-opacity:1;fill-rule:nonzero;stroke:none"
           id="path296" /></g></g><g
       id="g298"><g
         id="g300"
         clip-path="url(#clipPath304)"><path
           d="m 5568.79,2179.9 c 0,-394.18 -319.54,-713.72 -713.71,-713.72 -394.18,0 -713.72,319.54 -713.72,713.72 0,394.17 319.54,713.71 713.72,713.71 394.17,0 713.71,-319.54 713.71,-713.71"
           style="fill:url(#linearGradient324);fill-opacity:1;fill-rule:nonzero;stroke:none"
           id="path326" /></g></g></g></svg>
