<?xml version="1.0" encoding="UTF-8" standalone="no"?>
<!-- Created with Inkscape (http://www.inkscape.org/) -->

<svg
   width="2.3752341in"
   height="3.5754721in"
   viewBox="0 0 228.02248 343.24532"
   version="1.1"
   id="svg1"
   xml:space="preserve"
   xmlns:inkscape="http://www.inkscape.org/namespaces/inkscape"
   xmlns:sodipodi="http://sodipodi.sourceforge.net/DTD/sodipodi-0.dtd"
   xmlns="http://www.w3.org/2000/svg"
   xmlns:svg="http://www.w3.org/2000/svg"><sodipodi:namedview
     id="namedview1"
     pagecolor="#505050"
     bordercolor="#eeeeee"
     borderopacity="1"
     inkscape:showpageshadow="0"
     inkscape:pageopacity="0"
     inkscape:pagecheckerboard="0"
     inkscape:deskcolor="#505050"
     inkscape:document-units="in"><inkscape:page
       x="-1.5596537e-05"
       y="1.1401271e-06"
       width="228.02246"
       height="343.24533"
       id="page3"
       margin="0"
       bleed="0" /></sodipodi:namedview><defs
     id="defs1"><clipPath
       clipPathUnits="userSpaceOnUse"
       id="clipPath336"><path
         d="m 3148.38,1259.25 227.39,360.15 c 6.41,10.15 18.56,15.11 30.25,12.34 l 414.43,-98.29 c 22.24,-5.28 41.13,16.78 32.5,37.95 l -351.8,862.26 -754.33,-307.77 351.79,-862.26 c 8.64,-21.16 37.57,-23.71 49.77,-4.38 z"
         id="path334" /></clipPath><linearGradient
       x1="0"
       y1="0"
       x2="1"
       y2="0"
       gradientUnits="userSpaceOnUse"
       gradientTransform="matrix(1023.43,420.89,420.89,-1023.43,2789.95,1623.76)"
       spreadMethod="pad"
       id="linearGradient360"><stop
         style="stop-opacity:1;stop-color:#ee252c"
         offset="0"
         id="stop338" /><stop
         style="stop-opacity:1;stop-color:#ee252c"
         offset="0.00115006"
         id="stop340" /><stop
         style="stop-opacity:1;stop-color:#e91c24"
         offset="0.0444361"
         id="stop342" /><stop
         style="stop-opacity:1;stop-color:#91191e"
         offset="0.0824748"
         id="stop344" /><stop
         style="stop-opacity:1;stop-color:#ee2429"
         offset="0.294836"
         id="stop346" /><stop
         style="stop-opacity:1;stop-color:#e41d25"
         offset="0.444858"
         id="stop348" /><stop
         style="stop-opacity:1;stop-color:#ee2429"
         offset="0.558265"
         id="stop350" /><stop
         style="stop-opacity:1;stop-color:#d21e25"
         offset="0.694401"
         id="stop352" /><stop
         style="stop-opacity:1;stop-color:#94191e"
         offset="0.848354"
         id="stop354" /><stop
         style="stop-opacity:1;stop-color:#ec1c24"
         offset="0.962068"
         id="stop356" /><stop
         style="stop-opacity:1;stop-color:#ee242d"
         offset="1"
         id="stop358" /></linearGradient><clipPath
       clipPathUnits="userSpaceOnUse"
       id="clipPath370"><path
         d="m 3253.16,2125.91 -40.96,-100.42 -151.48,-371.27 -6.26,-15.3 -54.47,-133.58 -98.62,-241.7 c -8.64,-21.15 -37.55,-23.7 -49.78,-4.4 l -227.39,360.14 c -6.38,10.15 -18.55,15.13 -30.24,12.35 l -414.46,-98.28 c -22.19,-5.28 -41.08,16.8 -32.45,37.96 l 351.81,862.26 z"
         id="path368" /></clipPath><linearGradient
       x1="0"
       y1="0"
       x2="1"
       y2="0"
       gradientUnits="userSpaceOnUse"
       gradientTransform="matrix(1134.19,-437.135,-437.135,-1134.19,2162.56,2041.05)"
       spreadMethod="pad"
       id="linearGradient394"><stop
         style="stop-opacity:1;stop-color:#ee252c"
         offset="0"
         id="stop372" /><stop
         style="stop-opacity:1;stop-color:#ee252c"
         offset="0.00115006"
         id="stop374" /><stop
         style="stop-opacity:1;stop-color:#e91c24"
         offset="0.0444361"
         id="stop376" /><stop
         style="stop-opacity:1;stop-color:#91191e"
         offset="0.0824748"
         id="stop378" /><stop
         style="stop-opacity:1;stop-color:#ee2429"
         offset="0.294836"
         id="stop380" /><stop
         style="stop-opacity:1;stop-color:#e41d25"
         offset="0.444858"
         id="stop382" /><stop
         style="stop-opacity:1;stop-color:#ee2429"
         offset="0.558265"
         id="stop384" /><stop
         style="stop-opacity:1;stop-color:#d21e25"
         offset="0.694401"
         id="stop386" /><stop
         style="stop-opacity:1;stop-color:#94191e"
         offset="0.848354"
         id="stop388" /><stop
         style="stop-opacity:1;stop-color:#ec1c24"
         offset="0.962068"
         id="stop390" /><stop
         style="stop-opacity:1;stop-color:#ee242d"
         offset="1"
         id="stop392" /></linearGradient><clipPath
       clipPathUnits="userSpaceOnUse"
       id="clipPath404"><path
         d="m 3834.43,2859.9 c 0,-460.85 -373.59,-834.44 -834.44,-834.44 -460.85,0 -834.43,373.59 -834.43,834.44 0,460.85 373.58,834.44 834.43,834.44 460.85,0 834.44,-373.59 834.44,-834.44 z"
         id="path402" /></clipPath><linearGradient
       x1="0"
       y1="0"
       x2="1"
       y2="0"
       gradientUnits="userSpaceOnUse"
       gradientTransform="matrix(1441.36,-1246.42,-1246.42,-1441.36,2358.46,3414.66)"
       spreadMethod="pad"
       id="linearGradient424"><stop
         style="stop-opacity:1;stop-color:#ef9727"
         offset="0"
         id="stop406" /><stop
         style="stop-opacity:1;stop-color:#ef9727"
         offset="0.00115006"
         id="stop408" /><stop
         style="stop-opacity:1;stop-color:#efda3e"
         offset="0.13397"
         id="stop410" /><stop
         style="stop-opacity:1;stop-color:#fbbf2f"
         offset="0.294836"
         id="stop412" /><stop
         style="stop-opacity:1;stop-color:#f1f365"
         offset="0.446028"
         id="stop414" /><stop
         style="stop-opacity:1;stop-color:#fbbf2f"
         offset="0.558265"
         id="stop416" /><stop
         style="stop-opacity:1;stop-color:#fbc82f"
         offset="0.694401"
         id="stop418" /><stop
         style="stop-opacity:1;stop-color:#f8f362"
         offset="0.847204"
         id="stop420" /><stop
         style="stop-opacity:1;stop-color:#da9524"
         offset="1"
         id="stop422" /></linearGradient><clipPath
       clipPathUnits="userSpaceOnUse"
       id="clipPath434"><path
         d="m 2999.99,2099.66 c -419.22,0 -760.23,341.02 -760.23,760.24 0,419.22 341.01,760.24 760.23,760.24 419.22,0 760.24,-341.02 760.24,-760.24 0,-419.22 -341.02,-760.24 -760.24,-760.24 z"
         id="path432" /></clipPath><linearGradient
       x1="0"
       y1="0"
       x2="1"
       y2="0"
       gradientUnits="userSpaceOnUse"
       gradientTransform="matrix(1520.48,0,0,-1520.48,2239.75,2859.9)"
       spreadMethod="pad"
       id="linearGradient454"><stop
         style="stop-opacity:1;stop-color:#c1781a"
         offset="0"
         id="stop436" /><stop
         style="stop-opacity:1;stop-color:#c1781a"
         offset="0.00115006"
         id="stop438" /><stop
         style="stop-opacity:1;stop-color:#d88d18"
         offset="0.135126"
         id="stop440" /><stop
         style="stop-opacity:1;stop-color:#b87e1f"
         offset="0.294836"
         id="stop442" /><stop
         style="stop-opacity:1;stop-color:#d49429"
         offset="0.446028"
         id="stop444" /><stop
         style="stop-opacity:1;stop-color:#da991d"
         offset="0.558265"
         id="stop446" /><stop
         style="stop-opacity:1;stop-color:#ce7e19"
         offset="0.694401"
         id="stop448" /><stop
         style="stop-opacity:1;stop-color:#d6bc36"
         offset="0.847204"
         id="stop450" /><stop
         style="stop-opacity:1;stop-color:#b47c20"
         offset="1"
         id="stop452" /></linearGradient><clipPath
       clipPathUnits="userSpaceOnUse"
       id="clipPath464"><path
         d="m 3713.71,2859.9 c 0,-394.17 -319.54,-713.71 -713.72,-713.71 -394.17,0 -713.71,319.54 -713.71,713.71 0,394.17 319.54,713.71 713.71,713.71 394.18,0 713.72,-319.54 713.72,-713.71 z"
         id="path462" /></clipPath><linearGradient
       x1="0"
       y1="0"
       x2="1"
       y2="0"
       gradientUnits="userSpaceOnUse"
       gradientTransform="matrix(1547.69,-1335.03,-1335.03,-1547.69,2467.27,3319.42)"
       spreadMethod="pad"
       id="linearGradient484"><stop
         style="stop-opacity:1;stop-color:#ef9727"
         offset="0"
         id="stop466" /><stop
         style="stop-opacity:1;stop-color:#ef9727"
         offset="0.00115006"
         id="stop468" /><stop
         style="stop-opacity:1;stop-color:#efda3e"
         offset="0.13397"
         id="stop470" /><stop
         style="stop-opacity:1;stop-color:#fbbf2f"
         offset="0.294836"
         id="stop472" /><stop
         style="stop-opacity:1;stop-color:#f1f365"
         offset="0.446028"
         id="stop474" /><stop
         style="stop-opacity:1;stop-color:#fbbf2f"
         offset="0.558265"
         id="stop476" /><stop
         style="stop-opacity:1;stop-color:#fbc82f"
         offset="0.694401"
         id="stop478" /><stop
         style="stop-opacity:1;stop-color:#f8f362"
         offset="0.847204"
         id="stop480" /><stop
         style="stop-opacity:1;stop-color:#da9524"
         offset="1"
         id="stop482" /></linearGradient></defs><g
     id="g4"
     inkscape:label="gold"
     transform="matrix(0.13333333,0,0,-0.13333333,-285.98881,492.57865)"><path
       d="m 3855.07,1156.53 c 0,-20.17 -382.83,-36.53 -855.08,-36.53 -472.25,0 -855.07,16.36 -855.07,36.53 0,20.17 382.82,36.53 855.07,36.53 472.25,0 855.08,-16.36 855.08,-36.53"
       style="fill:#d0d9e5;fill-opacity:1;fill-rule:nonzero;stroke:none"
       id="path328" /><g
       id="g330"><g
         id="g332"
         clip-path="url(#clipPath336)"><path
           d="m 3148.38,1259.25 227.39,360.15 c 6.41,10.15 18.56,15.11 30.25,12.34 l 414.43,-98.29 c 22.24,-5.28 41.13,16.78 32.5,37.95 l -351.8,862.26 -754.33,-307.77 351.79,-862.26 c 8.64,-21.16 37.57,-23.71 49.77,-4.38"
           style="fill:url(#linearGradient360);fill-opacity:1;fill-rule:nonzero;stroke:none"
           id="path362" /></g></g><g
       id="g364"><g
         id="g366"
         clip-path="url(#clipPath370)"><path
           d="m 3253.16,2125.91 -40.96,-100.42 -151.48,-371.27 -6.26,-15.3 -54.47,-133.58 -98.62,-241.7 c -8.64,-21.15 -37.55,-23.7 -49.78,-4.4 l -227.39,360.14 c -6.38,10.15 -18.55,15.13 -30.24,12.35 l -414.46,-98.28 c -22.19,-5.28 -41.08,16.8 -32.45,37.96 l 351.81,862.26 754.3,-307.76"
           style="fill:url(#linearGradient394);fill-opacity:1;fill-rule:nonzero;stroke:none"
           id="path396" /></g></g><g
       id="g398"><g
         id="g400"
         clip-path="url(#clipPath404)"><path
           d="m 3834.43,2859.9 c 0,-460.85 -373.59,-834.44 -834.44,-834.44 -460.85,0 -834.43,373.59 -834.43,834.44 0,460.85 373.58,834.44 834.43,834.44 460.85,0 834.44,-373.59 834.44,-834.44"
           style="fill:url(#linearGradient424);fill-opacity:1;fill-rule:nonzero;stroke:none"
           id="path426" /></g></g><g
       id="g428"><g
         id="g430"
         clip-path="url(#clipPath434)"><path
           d="m 2999.99,2099.66 c -419.22,0 -760.23,341.02 -760.23,760.24 0,419.22 341.01,760.24 760.23,760.24 419.22,0 760.24,-341.02 760.24,-760.24 0,-419.22 -341.02,-760.24 -760.24,-760.24"
           style="fill:url(#linearGradient454);fill-opacity:1;fill-rule:nonzero;stroke:none"
           id="path456" /></g></g><g
       id="g458"><g
         id="g460"
         clip-path="url(#clipPath464)"><path
           d="m 3713.71,2859.9 c 0,-394.17 -319.54,-713.71 -713.72,-713.71 -394.17,0 -713.71,319.54 -713.71,713.71 0,394.17 319.54,713.71 713.71,713.71 394.18,0 713.72,-319.54 713.72,-713.71"
           style="fill:url(#linearGradient484);fill-opacity:1;fill-rule:nonzero;stroke:none"
           id="path486" /></g></g></g></svg>
