<?xml version="1.0" encoding="UTF-8" standalone="no"?>
<!-- Created with Inkscape (http://www.inkscape.org/) -->

<svg
   width="2.3752201in"
   height="3.5754726in"
   viewBox="0 0 228.02113 343.24537"
   version="1.1"
   id="svg1"
   xml:space="preserve"
   xmlns:inkscape="http://www.inkscape.org/namespaces/inkscape"
   xmlns:sodipodi="http://sodipodi.sourceforge.net/DTD/sodipodi-0.dtd"
   xmlns:xlink="http://www.w3.org/1999/xlink"
   xmlns="http://www.w3.org/2000/svg"
   xmlns:svg="http://www.w3.org/2000/svg"><sodipodi:namedview
     id="namedview1"
     pagecolor="#505050"
     bordercolor="#eeeeee"
     borderopacity="1"
     inkscape:showpageshadow="0"
     inkscape:pageopacity="0"
     inkscape:pagecheckerboard="0"
     inkscape:deskcolor="#505050"
     inkscape:document-units="in"><inkscape:page
       x="-3.0927844e-05"
       y="-1.8152938e-05"
       width="228.02112"
       height="343.24536"
       id="page3"
       margin="0"
       bleed="0" /></sodipodi:namedview><defs
     id="defs1"><linearGradient
       x1="0"
       y1="0"
       x2="1"
       y2="0"
       gradientUnits="userSpaceOnUse"
       gradientTransform="matrix(1547.69,-1335.03,-1335.03,-1547.69,612.189,2639.42)"
       spreadMethod="pad"
       id="linearGradient20"><stop
         style="stop-color:#4f6d7a;stop-opacity:1;"
         offset="0"
         id="stop13" /><stop
         style="stop-color:#3cc6ef;stop-opacity:1;"
         offset="1"
         id="stop20" /></linearGradient><clipPath
       clipPathUnits="userSpaceOnUse"
       id="clipPath22"><path
         d="m 1293.3,579.25 227.39,360.148 c 6.41,10.153 18.56,15.114 30.24,12.344 l 414.44,-98.293 c 22.24,-5.277 41.12,16.781 32.49,37.949 l -351.8,862.262 -754.33,-307.77 351.8,-862.261 c 8.63,-21.16 37.56,-23.707 49.77,-4.379 z"
         id="path20" /></clipPath><linearGradient
       x1="0"
       y1="0"
       x2="1"
       y2="0"
       gradientUnits="userSpaceOnUse"
       gradientTransform="matrix(1023.43,420.89,420.89,-1023.43,934.872,943.76)"
       spreadMethod="pad"
       id="linearGradient46"><stop
         style="stop-opacity:1;stop-color:#ee252c"
         offset="0"
         id="stop24" /><stop
         style="stop-opacity:1;stop-color:#ee252c"
         offset="0.00115006"
         id="stop26" /><stop
         style="stop-opacity:1;stop-color:#e91c24"
         offset="0.0444361"
         id="stop28" /><stop
         style="stop-opacity:1;stop-color:#91191e"
         offset="0.0824748"
         id="stop30" /><stop
         style="stop-opacity:1;stop-color:#ee2429"
         offset="0.294836"
         id="stop32" /><stop
         style="stop-opacity:1;stop-color:#e41d25"
         offset="0.444858"
         id="stop34" /><stop
         style="stop-opacity:1;stop-color:#ee2429"
         offset="0.558265"
         id="stop36" /><stop
         style="stop-opacity:1;stop-color:#d21e25"
         offset="0.694401"
         id="stop38" /><stop
         style="stop-opacity:1;stop-color:#94191e"
         offset="0.848354"
         id="stop40" /><stop
         style="stop-opacity:1;stop-color:#ec1c24"
         offset="0.962068"
         id="stop42" /><stop
         style="stop-opacity:1;stop-color:#ee242d"
         offset="1"
         id="stop44" /></linearGradient><clipPath
       clipPathUnits="userSpaceOnUse"
       id="clipPath56"><path
         d="m 1398.09,1445.91 -40.97,-100.42 -151.48,-371.271 -6.26,-15.297 -54.47,-133.582 -98.63,-241.699 c -8.63,-21.153 -37.55,-23.7 -49.776,-4.399 L 769.121,939.379 c -6.379,10.152 -18.547,15.133 -30.254,12.351 L 324.426,853.449 c -22.199,-5.277 -41.086,16.801 -32.453,37.961 l 351.804,862.26 z"
         id="path54" /></clipPath><linearGradient
       x1="0"
       y1="0"
       x2="1"
       y2="0"
       gradientUnits="userSpaceOnUse"
       gradientTransform="matrix(1134.19,-437.135,-437.135,-1134.19,307.48,1361.05)"
       spreadMethod="pad"
       id="linearGradient80"><stop
         style="stop-opacity:1;stop-color:#ee252c"
         offset="0"
         id="stop58" /><stop
         style="stop-opacity:1;stop-color:#ee252c"
         offset="0.00115006"
         id="stop60" /><stop
         style="stop-opacity:1;stop-color:#e91c24"
         offset="0.0444361"
         id="stop62" /><stop
         style="stop-opacity:1;stop-color:#91191e"
         offset="0.0824748"
         id="stop64" /><stop
         style="stop-opacity:1;stop-color:#ee2429"
         offset="0.294836"
         id="stop66" /><stop
         style="stop-opacity:1;stop-color:#e41d25"
         offset="0.444858"
         id="stop68" /><stop
         style="stop-opacity:1;stop-color:#ee2429"
         offset="0.558265"
         id="stop70" /><stop
         style="stop-opacity:1;stop-color:#d21e25"
         offset="0.694401"
         id="stop72" /><stop
         style="stop-opacity:1;stop-color:#94191e"
         offset="0.848354"
         id="stop74" /><stop
         style="stop-opacity:1;stop-color:#ec1c24"
         offset="0.962068"
         id="stop76" /><stop
         style="stop-opacity:1;stop-color:#ee242d"
         offset="1"
         id="stop78" /></linearGradient><clipPath
       clipPathUnits="userSpaceOnUse"
       id="clipPath90"><path
         d="m 1979.36,2179.9 c 0,-460.85 -373.6,-834.44 -834.45,-834.44 -460.847,0 -834.441,373.59 -834.441,834.44 0,460.85 373.594,834.44 834.441,834.44 460.85,0 834.45,-373.59 834.45,-834.44 z"
         id="path88" /></clipPath><linearGradient
       x1="0"
       y1="0"
       x2="1"
       y2="0"
       gradientUnits="userSpaceOnUse"
       gradientTransform="matrix(1441.36,-1246.42,-1246.42,-1441.36,503.382,2734.66)"
       spreadMethod="pad"
       id="linearGradient108"><stop
         style="stop-opacity:1;stop-color:#828483"
         offset="0"
         id="stop92" /><stop
         style="stop-opacity:1;stop-color:#b3b1aa"
         offset="0.127486"
         id="stop94" /><stop
         style="stop-opacity:1;stop-color:#969a9d"
         offset="0.266554"
         id="stop96" /><stop
         style="stop-opacity:1;stop-color:#b6b7bb"
         offset="0.402299"
         id="stop98" /><stop
         style="stop-opacity:1;stop-color:#f0f0f0"
         offset="0.544061"
         id="stop100" /><stop
         style="stop-opacity:1;stop-color:#b8bdc0"
         offset="0.694401"
         id="stop102" /><stop
         style="stop-opacity:1;stop-color:#e2e3db"
         offset="0.847204"
         id="stop104" /><stop
         style="stop-opacity:1;stop-color:#606969"
         offset="1"
         id="stop106" /></linearGradient><clipPath
       clipPathUnits="userSpaceOnUse"
       id="clipPath118"><path
         d="m 1144.91,1419.66 c -419.219,0 -760.242,341.02 -760.242,760.24 0,419.22 341.023,760.24 760.242,760.24 419.22,0 760.24,-341.02 760.24,-760.24 0,-419.22 -341.02,-760.24 -760.24,-760.24 z"
         id="path116" /></clipPath><linearGradient
       x1="0"
       y1="0"
       x2="1"
       y2="0"
       gradientUnits="userSpaceOnUse"
       gradientTransform="matrix(1520.48,0,0,-1520.48,384.673,2179.9)"
       spreadMethod="pad"
       id="linearGradient136"><stop
         style="stop-opacity:1;stop-color:#67696a"
         offset="0"
         id="stop120" /><stop
         style="stop-opacity:1;stop-color:#989691"
         offset="0.127486"
         id="stop122" /><stop
         style="stop-opacity:1;stop-color:#5f6568"
         offset="0.266554"
         id="stop124" /><stop
         style="stop-opacity:1;stop-color:#72757a"
         offset="0.402299"
         id="stop126" /><stop
         style="stop-opacity:1;stop-color:#a2a4a5"
         offset="0.544061"
         id="stop128" /><stop
         style="stop-opacity:1;stop-color:#575d61"
         offset="0.694401"
         id="stop130" /><stop
         style="stop-opacity:1;stop-color:#a0a39e"
         offset="0.846028"
         id="stop132" /><stop
         style="stop-opacity:1;stop-color:#606969"
         offset="1"
         id="stop134" /></linearGradient><clipPath
       clipPathUnits="userSpaceOnUse"
       id="clipPath146"><path
         d="m 1858.62,2179.9 c 0,-394.18 -319.54,-713.72 -713.71,-713.72 -394.168,0 -713.711,319.54 -713.711,713.72 0,394.17 319.543,713.71 713.711,713.71 394.17,0 713.71,-319.54 713.71,-713.71 z"
         id="path144" /></clipPath><linearGradient
       inkscape:collect="always"
       xlink:href="#linearGradient46"
       id="linearGradient9"
       gradientUnits="userSpaceOnUse"
       gradientTransform="matrix(1023.43,420.89,420.89,-1023.43,934.872,943.76)"
       x1="0"
       y1="0"
       x2="1"
       y2="0"
       spreadMethod="pad" /><linearGradient
       inkscape:collect="always"
       xlink:href="#linearGradient80"
       id="linearGradient10"
       gradientUnits="userSpaceOnUse"
       gradientTransform="matrix(1134.19,-437.135,-437.135,-1134.19,307.48,1361.05)"
       x1="0"
       y1="0"
       x2="1"
       y2="0"
       spreadMethod="pad" /><linearGradient
       inkscape:collect="always"
       xlink:href="#linearGradient108"
       id="linearGradient11"
       gradientUnits="userSpaceOnUse"
       gradientTransform="matrix(1441.36,-1246.42,-1246.42,-1441.36,503.382,2734.66)"
       x1="0"
       y1="0"
       x2="1"
       y2="0"
       spreadMethod="pad" /><linearGradient
       inkscape:collect="always"
       xlink:href="#linearGradient136"
       id="linearGradient12"
       gradientUnits="userSpaceOnUse"
       gradientTransform="matrix(1520.48,0,0,-1520.48,384.673,2179.9)"
       x1="0"
       y1="0"
       x2="1"
       y2="0"
       spreadMethod="pad" /><linearGradient
       inkscape:collect="always"
       xlink:href="#linearGradient20"
       id="linearGradient13"
       gradientUnits="userSpaceOnUse"
       gradientTransform="matrix(1547.69,-1335.03,-1335.03,-1547.69,612.189,2639.42)"
       x1="0"
       y1="0"
       x2="0.64700288"
       y2="-0.13956995"
       spreadMethod="pad" /></defs><g
     id="g2"
     inkscape:label="NP"
     transform="matrix(0.13333333,0,0,-0.13333333,-38.644886,401.912)"
     inkscape:export-filename="g2.svg"
     inkscape:export-xdpi="96"
     inkscape:export-ydpi="96"><path
       d="m 1999.98,476.531 c 0,-20.172 -382.82,-36.531 -855.07,-36.531 -472.242,0 -855.074,16.359 -855.074,36.531 0,20.168 382.832,36.528 855.074,36.528 472.25,0 855.07,-16.36 855.07,-36.528"
       style="fill:#d0d9e5;fill-opacity:1;fill-rule:nonzero;stroke:none"
       id="path14" /><g
       id="g16"><g
         id="g18"
         clip-path="url(#clipPath22)"><path
           d="m 1293.3,579.25 227.39,360.148 c 6.41,10.153 18.56,15.114 30.24,12.344 l 414.44,-98.293 c 22.24,-5.277 41.12,16.781 32.49,37.949 l -351.8,862.262 -754.33,-307.77 351.8,-862.261 c 8.63,-21.16 37.56,-23.707 49.77,-4.379"
           style="fill:url(#linearGradient9);fill-opacity:1;fill-rule:nonzero;stroke:none"
           id="path48" /></g></g><g
       id="g50"><g
         id="g52"
         clip-path="url(#clipPath56)"><path
           d="m 1398.09,1445.91 -40.97,-100.42 -151.48,-371.271 -6.26,-15.297 -54.47,-133.582 -98.63,-241.699 c -8.63,-21.153 -37.55,-23.7 -49.776,-4.399 L 769.121,939.379 c -6.379,10.152 -18.547,15.133 -30.254,12.351 L 324.426,853.449 c -22.199,-5.277 -41.086,16.801 -32.453,37.961 l 351.804,862.26 754.313,-307.76"
           style="fill:url(#linearGradient10);fill-opacity:1;fill-rule:nonzero;stroke:none"
           id="path82" /></g></g><g
       id="g84"><g
         id="g86"
         clip-path="url(#clipPath90)"><path
           d="m 1979.36,2179.9 c 0,-460.85 -373.6,-834.44 -834.45,-834.44 -460.847,0 -834.441,373.59 -834.441,834.44 0,460.85 373.594,834.44 834.441,834.44 460.85,0 834.45,-373.59 834.45,-834.44"
           style="fill:url(#linearGradient11);fill-opacity:1;fill-rule:nonzero;stroke:none"
           id="path110" /></g></g><g
       id="g112"><g
         id="g114"
         clip-path="url(#clipPath118)"><path
           d="m 1144.91,1419.66 c -419.219,0 -760.242,341.02 -760.242,760.24 0,419.22 341.023,760.24 760.242,760.24 419.22,0 760.24,-341.02 760.24,-760.24 0,-419.22 -341.02,-760.24 -760.24,-760.24"
           style="fill:url(#linearGradient12);fill-opacity:1;fill-rule:nonzero;stroke:none"
           id="path138" /></g></g><g
       id="g140"><g
         id="g142"
         clip-path="url(#clipPath146)"><path
           d="m 1858.62,2179.9 c 0,-394.18 -319.54,-713.72 -713.71,-713.72 -394.168,0 -713.711,319.54 -713.711,713.72 0,394.17 319.543,713.71 713.711,713.71 394.17,0 713.71,-319.54 713.71,-713.71"
           style="fill:url(#linearGradient13);fill-opacity:1;fill-rule:nonzero;stroke:none"
           id="path166" /></g></g></g></svg>
